HIERARCHY
ROOT Hips
{
	OFFSET 0.000000 0.000000 0.000000
	CHANNELS 6 Xposition Yposition Zposition Xrotation Yrotation Zrotation
	JOINT LeftUpLeg_virtual
	{
		OFFSET 0.000000 0.000000 0.000000
		CHANNELS 3 Xrotation Yrotation Zrotation
		JOINT LeftUpLeg
		{
			OFFSET 15.427100 -6.655098 0.678600
			CHANNELS 3 Xrotation Yrotation Zrotation
			JOINT LeftLeg
			{
				OFFSET 4.081073 -39.591068 13.024000
				CHANNELS 3 Xrotation Yrotation Zrotation
				JOINT LeftFoot
				{
					OFFSET -4.081074 -37.707932 -15.979700
					CHANNELS 3 Xrotation Yrotation Zrotation
					JOINT LeftToeBase
					{
						OFFSET 5.346399 -15.068900 20.645000
						CHANNELS 3 Xrotation Yrotation Zrotation
						JOINT LeftToe_End
						{
							OFFSET 2.754700 0.931300 11.300900
							CHANNELS 3 Xrotation Yrotation Zrotation
							End Site
							{
								OFFSET 0 0 0
							}
						}
					}
				}
			}
		}
	}
	JOINT RightUpLeg_virtual
	{
		OFFSET 0.000000 0.000000 0.000000
		CHANNELS 3 Xrotation Yrotation Zrotation
		JOINT RightUpLeg
		{
			OFFSET -15.569500 -6.655098 0.678600
			CHANNELS 3 Xrotation Yrotation Zrotation
			JOINT RightLeg
			{
				OFFSET -4.081825 -39.591045 13.023800
				CHANNELS 3 Xrotation Yrotation Zrotation
				JOINT RightFoot
				{
					OFFSET 4.081824 -37.707954 -15.979600
					CHANNELS 3 Xrotation Yrotation Zrotation
					JOINT RightToeBase
					{
						OFFSET -5.346400 -15.068900 20.645000
						CHANNELS 3 Xrotation Yrotation Zrotation
						JOINT RightToe_End
						{
							OFFSET -2.754700 0.931300 11.300900
							CHANNELS 3 Xrotation Yrotation Zrotation
							End Site
							{
								OFFSET 0 0 0
							}
						}
					}
				}
			}
		}
	}
	JOINT Spine_virtual
	{
		OFFSET 0.000000 0.000000 0.000000
		CHANNELS 3 Xrotation Yrotation Zrotation
		JOINT Spine
		{
			OFFSET -0.279200 12.230698 -2.892100
			CHANNELS 3 Xrotation Yrotation Zrotation
			JOINT Spine1
			{
				OFFSET -0.232667 10.192268 -1.242267
				CHANNELS 3 Xrotation Yrotation Zrotation
				JOINT Spine1_split
				{
					OFFSET -0.232667 10.192268 -1.242267
					CHANNELS 3 Xrotation Yrotation Zrotation
					JOINT Spine2
					{
						OFFSET -0.232667 10.192268 -1.242267
						CHANNELS 3 Xrotation Yrotation Zrotation
						JOINT Neck_virtual
						{
							OFFSET 0.000000 0.000000 0.000000
							CHANNELS 3 Xrotation Yrotation Zrotation
							JOINT Neck
							{
								OFFSET -0.418800 17.814194 8.416900
								CHANNELS 3 Xrotation Yrotation Zrotation
								JOINT Head
								{
									OFFSET 0.000000 7.031097 3.806800
									CHANNELS 3 Xrotation Yrotation Zrotation
									JOINT HeadTop_End
									{
										OFFSET 0.000000 24.646606 12.978600
										CHANNELS 3 Xrotation Yrotation Zrotation
										End Site
										{
											OFFSET 0 0 0
										}
									}
								}
							}
						}
						JOINT LeftShoulder_virtual
						{
							OFFSET 0.000000 0.000000 0.000000
							CHANNELS 3 Xrotation Yrotation Zrotation
							JOINT LeftShoulder
							{
								OFFSET 8.476499 7.247704 -3.868750
								CHANNELS 3 Xrotation Yrotation Zrotation
								JOINT LeftShoulder_split
								{
									OFFSET 8.476499 7.247704 -3.868750
									CHANNELS 3 Xrotation Yrotation Zrotation
									JOINT LeftArm
									{
										OFFSET 9.308998 -2.777710 0.208600
										CHANNELS 3 Xrotation Yrotation Zrotation
										JOINT LeftForeArm
										{
											OFFSET 29.972298 0.000000 0.000000
											CHANNELS 3 Xrotation Yrotation Zrotation
											JOINT LeftHand
											{
												OFFSET 26.026505 0.000000 0.000000
												CHANNELS 3 Xrotation Yrotation Zrotation
												End Site
												{
													OFFSET 0 0 0
												}
											}
										}
									}
								}
							}
						}
						JOINT RightShoulder_virtual
						{
							OFFSET 0.000000 0.000000 0.000000
							CHANNELS 3 Xrotation Yrotation Zrotation
							JOINT RightShoulder
							{
								OFFSET -7.570500 7.247704 -3.868750
								CHANNELS 3 Xrotation Yrotation Zrotation
								JOINT RightShoulder_split
								{
									OFFSET -7.570500 7.247704 -3.868750
									CHANNELS 3 Xrotation Yrotation Zrotation
									JOINT RightArm
									{
										OFFSET -9.308998 -2.777710 0.208500
										CHANNELS 3 Xrotation Yrotation Zrotation
										JOINT RightForeArm
										{
											OFFSET -29.972300 0.000000 0.000000
											CHANNELS 3 Xrotation Yrotation Zrotation
											JOINT RightHand
											{
												OFFSET -26.026505 0.000000 0.000000
												CHANNELS 3 Xrotation Yrotation Zrotation
												End Site
												{
													OFFSET 0 0 0
												}
											}
										}
									}
								}
							}
						}
					}
				}
			}
		}
	}
}
MOTION
Frames: 7
Frame Time: 0.03333333
-2.314027 73.711311 2.879473 0.000000 0.000000 0.000000 4.965772 58.303485 -11.104016 -2.158271 7.095698 27.785010 47.369609 -10.008411 10.063439 -30.278174 9.139029 -19.143347 -9.492986 -0.375795 -1.621447 0.000000 0.000000 0.000000 7.411241 58.774816 -13.321782 -39.291886 13.685043 -28.182551 31.576057 7.087191 -0.669067 2.847352 8.181170 13.071501 -8.178565 -0.419952 1.542967 0.000000 0.000000 0.000000 5.183955 58.975999 -8.379224 0.968931 -3.129107 -2.383717 2.866911 -0.888626 -0.238556 1.381440 -0.363335 0.144390 0.000000 0.000000 0.000000 1.683566 -1.114265 -0.097329 -5.599784 -10.253794 -0.039516 -2.941812 -42.488363 5.980540 0.000000 0.000000 0.000000 1.625856 -1.137619 -0.417622 0.312770 -8.723215 -9.124210 -3.436271 0.855668 -2.190669 -2.198497 -43.280651 -50.778625 172.962178 -76.467574 173.056954 0.000000 0.000000 0.000000 2.486451 -0.882180 -0.309572 -0.038422 -1.545624 10.315180 -4.853255 6.313246 -0.085536 -24.068180 -8.660034 45.833619 -178.269153 67.111499 176.928278 0.000000 0.000000 0.000000 
-2.271492 76.838051 1.946241 0.000000 0.000000 0.000000 4.889376 56.213372 -10.964265 -2.327165 5.043219 27.729793 45.341306 -8.170062 8.929413 -24.955519 9.525003 -16.928100 -8.415094 -0.158191 -2.533768 0.000000 0.000000 0.000000 7.211934 55.786998 -12.585042 -38.452640 10.626031 -28.169816 27.513156 8.323779 -0.454854 4.954014 10.659946 16.556095 -10.208319 0.103932 0.799571 0.000000 0.000000 0.000000 5.436341 56.196662 -8.585631 0.428469 -3.305551 -1.904161 2.600809 -0.896070 -0.141896 1.471991 -0.514806 0.121103 0.000000 0.000000 0.000000 2.139357 -1.033653 -0.094014 -5.427880 -10.061926 0.122868 -2.428387 -42.385296 6.000563 0.000000 0.000000 0.000000 1.676099 -1.128380 -0.280053 0.323980 -9.175797 -8.140405 -3.914201 -0.505368 -0.802222 -5.495293 -43.576726 -50.853692 174.963178 -75.088504 175.254881 0.000000 0.000000 0.000000 2.552009 -0.856615 -0.182016 -0.005960 -1.584791 9.871341 -5.232754 5.082318 -0.853274 -25.429836 -9.034007 44.879606 -179.146409 66.176993 177.473942 0.000000 0.000000 0.000000 
-1.858677 82.772865 0.253323 0.000000 0.000000 0.000000 4.609914 52.425213 -10.604395 -3.407234 2.658684 27.140255 41.323789 -6.420250 7.282375 -14.438622 8.216906 -16.119684 -5.625007 0.061815 -4.979952 0.000000 0.000000 0.000000 7.017960 50.873940 -11.723612 -36.157348 7.235055 -26.620444 20.155753 9.436112 0.413080 6.762358 13.031500 18.636192 -10.060346 0.570685 0.404608 0.000000 0.000000 0.000000 5.498462 51.444537 -8.525240 -0.069012 -3.163128 -1.214943 2.429890 -0.758076 -0.163698 1.565017 -0.352306 0.129311 0.000000 0.000000 0.000000 2.650567 -0.814377 -0.189443 -5.068070 -9.541814 0.392587 -1.525016 -40.877603 6.038397 0.000000 0.000000 0.000000 1.913294 -0.938184 -0.224223 0.338522 -9.284318 -6.737891 -3.362990 -1.444061 -0.392712 -9.400636 -43.344941 -50.075450 177.446020 -72.706244 177.694242 0.000000 0.000000 0.000000 2.695703 -0.730832 -0.214529 0.088428 -1.318007 8.983954 -5.169567 3.760941 -0.684395 -27.321750 -7.639310 42.513426 -179.075635 65.221832 177.198576 0.000000 0.000000 0.000000 
-1.158364 89.735596 -1.900566 0.000000 0.000000 0.000000 4.014136 47.095940 -10.079689 -4.735884 1.024467 25.923348 37.640804 -4.645867 5.564335 -1.872431 5.610440 -15.507069 -6.207741 0.206889 -6.949660 0.000000 0.000000 0.000000 6.267014 44.935418 -10.655252 -33.322533 3.871243 -23.844766 13.686886 9.463620 1.624312 7.461878 13.460221 18.382392 -8.095506 0.836828 0.311158 0.000000 0.000000 0.000000 5.146870 45.525786 -8.009450 -0.247861 -2.750053 -0.512121 2.356719 -0.491918 -0.246266 1.370384 -0.227551 0.115242 0.000000 0.000000 0.000000 3.081427 -0.486056 -0.331918 -4.606799 -8.790436 0.682365 -0.409131 -38.048453 5.971152 0.000000 0.000000 0.000000 2.251933 -0.612191 -0.231178 0.314811 -8.988590 -5.238470 -2.483429 -1.641637 -0.755270 -13.196460 -42.175605 -48.940843 179.583322 -70.356624 179.623907 0.000000 0.000000 0.000000 2.894488 -0.489890 -0.370709 0.180067 -0.669918 7.950145 -4.712042 3.136953 0.012886 -28.977300 -4.706564 39.711922 -178.462338 64.642570 176.606002 0.000000 0.000000 0.000000 
-0.375122 96.146118 -3.676931 0.000000 0.000000 0.000000 3.041715 41.000891 -9.089979 -5.892625 0.612153 23.652752 35.284675 -2.799233 4.270841 7.414678 2.864161 -13.879084 -10.848745 0.517535 -7.465361 0.000000 0.000000 0.000000 4.717606 38.441630 -9.297837 -30.888694 0.857030 -20.677385 11.307363 8.336768 2.744564 6.935587 11.168737 16.322209 -6.776751 0.877065 0.289402 0.000000 0.000000 0.000000 4.327258 39.475495 -7.067678 -0.028115 -2.132001 0.063309 2.405277 -0.133895 -0.325506 1.040114 -0.149380 -0.074570 0.000000 0.000000 0.000000 3.353158 -0.093364 -0.450915 -4.105018 -7.827270 0.891356 0.688122 -34.269573 5.747480 0.000000 0.000000 0.000000 2.629885 -0.194089 -0.274848 0.229908 -8.300830 -3.934970 -1.856070 -1.077037 -1.254031 -16.334770 -40.243594 -47.848258 -178.942091 -68.730076 -179.163648 0.000000 0.000000 0.000000 3.103934 -0.141993 -0.579717 0.323562 0.327720 7.187345 -4.057253 3.307569 0.382725 -29.977547 -0.926044 37.347563 -177.672331 64.709192 176.085009 0.000000 0.000000 0.000000 
0.529549 100.705055 -4.763369 0.000000 0.000000 0.000000 1.659116 34.427814 -7.581812 -8.004415 1.365117 21.114046 35.520126 -0.890416 3.248280 11.091073 0.993756 -11.909667 -14.216787 0.953126 -7.688637 0.000000 0.000000 0.000000 2.478296 32.297881 -7.638617 -29.257979 -1.231317 -18.063750 14.518399 6.907027 3.394029 5.166458 7.116387 13.378927 -6.964073 0.774676 0.133929 0.000000 0.000000 0.000000 3.023220 34.101803 -5.822282 0.514606 -1.402069 0.463696 2.547206 0.283452 -0.343992 0.778459 -0.032558 -0.248206 0.000000 0.000000 0.000000 3.421395 0.302852 -0.503960 -3.641240 -6.718770 0.940503 1.610336 -30.051179 5.382593 0.000000 0.000000 0.000000 2.969784 0.245760 -0.323491 0.127672 -7.411597 -3.082314 -1.739541 -0.295918 -1.789933 -17.971759 -37.749831 -47.109188 -178.172861 -68.066428 -178.607698 0.000000 0.000000 0.000000 3.298625 0.273357 -0.750125 0.539790 1.522012 7.029409 -3.382005 3.763541 0.332793 -30.123231 2.773647 36.032458 -177.129837 65.569434 176.004358 0.000000 0.000000 0.000000 
1.443901 103.255669 -5.701887 0.000000 0.000000 0.000000 0.296559 27.296156 -5.665492 -12.003695 2.213130 19.134908 37.825099 0.645251 2.636184 10.825472 -0.047427 -11.018485 -13.361524 1.250033 -7.598106 0.000000 0.000000 0.000000 0.483572 27.069488 -5.805389 -28.137378 -2.205785 -16.849663 21.821240 5.807038 3.697941 2.436080 2.956301 10.627265 -6.751743 0.646941 -0.013488 0.000000 0.000000 0.000000 1.626257 28.803058 -4.587690 1.172583 -0.663672 0.636060 2.745480 0.698047 -0.306763 0.631011 0.221055 -0.095724 0.000000 0.000000 0.000000 3.333327 0.670146 -0.473083 -3.152550 -5.562789 0.809799 2.208866 -25.775180 4.940446 0.000000 0.000000 0.000000 3.225751 0.653239 -0.366443 0.072258 -6.320769 -2.794897 -2.004405 0.402833 -2.150698 -18.087120 -35.162149 -47.157088 -178.026599 -68.492720 -178.584298 0.000000 0.000000 0.000000 3.486645 0.704421 -0.844635 0.788248 2.654774 7.603943 -2.802217 4.301569 -0.187176 -29.795204 5.616404 35.951466 -177.142404 67.100065 176.493632 0.000000 0.000000 0.000000 
